# xmcd
#
# Track frame offsets:
# 150
# 12895
# 25311
# 46338
# 63223
# 75572
# 94794
# 107194
# 121099
# 138505
# 152271
# 168331
# 188059
# 204728
# 220639
# 232945
# 250694
# 264795
# 281490
#
# Disc length: 3972 seconds
#
#
# Revision: 0
# Processed by: cddbd v1.5.2PL0 Copyright (c) Steve Scherf et al.
# Submitted via: FreeRIP 2.945 
#
DISCID=ec0f8213
DTITLE=Kenny Rogers - Christmas Collection
DYEAR=1900
DGENRE=Country
TTITLE0=White Christmas
TTITLE1=Carol of the Bells
TTITLE2=O Holy Night
TTITLE3=Christmas Everyday
TTITLE4=Kids
TTITLE5=Kentucky Homemade Christmas
TTITLE6=Christmas Is My Favorite Time Of
TTITLE7=Sweet Little Jesus Boy
TTITLE8=When a Child Is Born
TTITLE9=My Favorite Things
TTITLE10=The Greatest Gift of All
TTITLE11=Once upon a Christmas
TTITLE12=Winter Wonderland - Sleigh Ride ( Dolly Parton)
TTITLE13=I Believe in Santa Claus
TTITLE14=With Bells On
TTITLE15=Christmas Without You
TTITLE16=White Christmas
TTITLE17=A Christmas to Remember
TTITLE18=Hard Candy Christmas(Dolly Parton)
EXTD=
EXTT0=
EXTT1=
EXTT2=
EXTT3=
EXTT4=
EXTT5=
EXTT6=
EXTT7=
EXTT8=
EXTT9=
EXTT10=
EXTT11=
EXTT12=
EXTT13=
EXTT14=
EXTT15=
EXTT16=
EXTT17=
EXTT18=
PLAYORDER=
